<svg xmlns="http://www.w3.org/2000/svg" xmlns:xlink="http://www.w3.org/1999/xlink" width="500" zoomAndPan="magnify" viewBox="0 0 375 374.999991" height="500" preserveAspectRatio="xMidYMid meet" version="1.0"><defs><g/><clipPath id="601dac5da3"><path d="M 176 59.558594 L 211 59.558594 L 211 96 L 176 96 Z M 176 59.558594 " clip-rule="nonzero"/></clipPath><clipPath id="3fb6101196"><path d="M 78.175781 91 L 297 91 L 297 207.308594 L 78.175781 207.308594 Z M 78.175781 91 " clip-rule="nonzero"/></clipPath></defs><g clip-path="url(#601dac5da3)"><path fill="#00bcd4" d="M 194.757812 64.175781 C 195.019531 64.570312 195.238281 64.984375 195.457031 65.398438 C 195.785156 65.222656 196.113281 65.050781 196.460938 64.917969 C 196.546875 64.875 196.65625 64.832031 196.746094 64.789062 C 198.710938 64.042969 200.71875 64 203.101562 64.742188 C 205.746094 65.59375 207.820312 67.429688 209 69.703125 C 210.179688 71.972656 210.484375 74.726562 209.65625 77.371094 C 208.34375 81.453125 205.199219 84.773438 201.09375 87.679688 C 197.3125 90.386719 192.746094 92.726562 188.203125 95.085938 C 186.761719 95.828125 184.972656 95.257812 184.226562 93.816406 C 181.871094 89.273438 179.53125 84.730469 178.003906 80.316406 C 176.34375 75.578125 175.6875 71.035156 176.976562 66.949219 C 177.828125 64.304688 179.664062 62.230469 181.933594 61.050781 C 184.207031 59.871094 186.957031 59.566406 189.601562 60.394531 C 191.960938 61.203125 193.597656 62.40625 194.757812 64.175781 Z M 190.890625 70.792969 C 190.652344 69.308594 190.34375 68.195312 189.84375 67.429688 L 189.84375 67.410156 C 189.449219 66.796875 188.792969 66.359375 187.8125 66.054688 C 186.71875 65.703125 185.582031 65.835938 184.644531 66.339844 C 183.703125 66.820312 182.941406 67.671875 182.589844 68.761719 C 181.738281 71.449219 182.304688 74.769531 183.574219 78.394531 C 184.6875 81.5625 186.347656 85.015625 188.117188 88.488281 C 191.566406 86.675781 194.910156 84.839844 197.664062 82.875 C 200.785156 80.644531 203.167969 78.265625 204.019531 75.578125 C 204.367188 74.484375 204.238281 73.351562 203.734375 72.410156 C 203.253906 71.472656 202.402344 70.707031 201.308594 70.355469 C 200.304688 70.03125 199.519531 70.03125 198.84375 70.292969 L 198.6875 70.355469 C 197.882812 70.707031 196.984375 71.472656 195.957031 72.519531 C 194.824219 73.699219 192.945312 73.722656 191.785156 72.585938 C 191.261719 72.105469 190.976562 71.449219 190.890625 70.792969 Z M 190.890625 70.792969 " fill-opacity="1" fill-rule="evenodd"/></g><g clip-path="url(#3fb6101196)"><path fill="#272727" d="M 273.089844 186.609375 C 272.390625 186.894531 271.671875 187.179688 270.925781 187.417969 C 272.566406 189.605469 274.136719 192.640625 274.53125 196.570312 C 274.683594 198.078125 273.570312 199.433594 272.0625 199.566406 C 270.554688 199.71875 269.203125 198.605469 269.070312 197.074219 C 268.65625 192.925781 266.40625 190.238281 264.921875 188.90625 C 263.761719 189.101562 262.582031 189.234375 261.425781 189.296875 C 263.761719 191.679688 265.355469 194.429688 266.40625 198.058594 C 266.820312 199.476562 268.175781 200.65625 269.8125 201.289062 C 270.664062 201.617188 271.582031 201.769531 272.433594 201.726562 C 273.175781 201.683594 273.898438 201.441406 274.464844 201.007812 C 275.425781 200.261719 276.148438 198.84375 276.257812 196.527344 C 276.585938 189.648438 274.292969 187.332031 273.089844 186.609375 Z M 277.152344 163.214844 C 276.476562 168.21875 274.96875 175.230469 271.648438 181.214844 C 273.765625 180.277344 275.777344 179.097656 277.566406 177.675781 C 281.476562 174.597656 284.515625 169.203125 286.742188 163.324219 L 286.808594 163.171875 C 283.925781 163.324219 280.714844 163.347656 277.152344 163.214844 Z M 249.433594 112.929688 C 246.613281 112.929688 244.320312 116.578125 244.320312 121.058594 C 244.320312 125.535156 246.613281 129.183594 249.433594 129.183594 C 252.25 129.183594 254.542969 125.535156 254.542969 121.058594 C 254.542969 116.558594 252.25 112.929688 249.433594 112.929688 Z M 261.335938 166.382812 C 259.832031 166.382812 258.605469 167.605469 258.605469 169.113281 C 258.605469 170.621094 259.832031 171.84375 261.335938 171.84375 C 262.84375 171.84375 264.066406 170.621094 264.066406 169.113281 C 264.066406 167.605469 262.84375 166.382812 261.335938 166.382812 Z M 253.757812 159.152344 C 252.25 159.152344 251.027344 160.375 251.027344 161.882812 C 251.027344 163.390625 252.25 164.613281 253.757812 164.613281 C 255.265625 164.613281 256.488281 163.390625 256.488281 161.882812 C 256.488281 160.375 255.265625 159.152344 253.757812 159.152344 Z M 251.246094 169.003906 C 249.738281 169.003906 248.515625 170.226562 248.515625 171.734375 C 248.515625 173.242188 249.738281 174.464844 251.246094 174.464844 C 252.753906 174.464844 253.976562 173.242188 253.976562 171.734375 C 253.976562 170.226562 252.753906 169.003906 251.246094 169.003906 Z M 225.578125 113.5 C 222.761719 113.5 220.46875 117.148438 220.46875 121.625 C 220.46875 126.101562 222.761719 129.75 225.578125 129.75 C 228.398438 129.75 230.691406 126.125 230.691406 121.625 C 230.691406 117.125 228.398438 113.5 225.578125 113.5 Z M 146.503906 136.371094 C 146.503906 136.390625 149.890625 144.363281 147.007812 145.742188 C 144.058594 147.160156 141.457031 142.53125 141.4375 142.53125 C 140.691406 141.199219 139.011719 140.738281 137.679688 141.503906 C 136.785156 142.003906 136.28125 142.921875 136.28125 143.882812 C 136.257812 144.453125 135.953125 148.078125 132.699219 148.472656 C 129.902344 148.800781 130.078125 140.105469 130.078125 140.082031 C 130.097656 138.578125 128.898438 137.308594 127.367188 137.289062 C 125.839844 137.265625 124.59375 138.46875 124.574219 139.996094 C 124.574219 140.039062 124.265625 155.046875 133.332031 153.953125 C 137 153.515625 139.078125 151.53125 140.257812 149.453125 C 142.484375 151.222656 145.609375 152.511719 149.34375 150.722656 C 157.03125 147.050781 151.570312 134.339844 151.550781 134.292969 C 150.980469 132.898438 149.367188 132.21875 147.96875 132.789062 C 146.589844 133.355469 145.9375 134.949219 146.503906 136.371094 Z M 185.605469 131.542969 C 183.59375 136.785156 180.84375 147.03125 178.789062 157.535156 C 176.910156 167.082031 175.644531 176.738281 176.058594 182.832031 C 176.234375 185.496094 177.195312 187.332031 178.59375 188.511719 C 179.511719 189.296875 180.667969 189.820312 181.933594 190.148438 C 183.332031 190.5 184.863281 190.585938 186.414062 190.5 C 191.066406 190.171875 195.828125 188.097656 198.230469 185.277344 C 203.824219 178.660156 201.046875 167.367188 198.734375 160.003906 C 195.847656 150.832031 191 140.847656 185.605469 131.542969 Z M 223.371094 160.507812 C 222.78125 161.90625 221.167969 162.5625 219.769531 161.972656 C 218.371094 161.382812 217.714844 159.765625 218.304688 158.367188 C 218.304688 158.34375 221.277344 151.398438 229.402344 148.230469 C 230.820312 147.683594 232.417969 148.382812 232.960938 149.804688 C 233.507812 151.222656 232.808594 152.820312 231.390625 153.363281 C 230.058594 153.890625 228.921875 154.523438 227.960938 155.199219 C 228.941406 157.886719 231.695312 162.625 235.234375 167.519531 C 238.445312 171.953125 242.246094 176.453125 245.960938 179.597656 C 247.574219 180.976562 249.519531 182.003906 251.660156 182.699219 L 251.769531 182.746094 C 254.542969 183.640625 257.644531 183.96875 260.8125 183.816406 C 261.578125 183.769531 262.320312 183.707031 263.085938 183.597656 C 263.152344 183.53125 263.214844 183.488281 263.28125 183.421875 C 268.722656 177.917969 270.863281 168.832031 271.691406 162.78125 C 257.734375 160.398438 257.734375 146.636719 258.980469 138.554688 C 250.394531 139.667969 242.835938 140.980469 242.8125 141 C 241.328125 141.261719 239.886719 140.28125 239.625 138.773438 C 239.363281 137.289062 240.347656 135.847656 241.851562 135.582031 C 241.898438 135.582031 255.660156 133.160156 267.367188 132.089844 C 266.601562 128.265625 264.941406 121.386719 261.90625 113.542969 C 259.722656 107.90625 254.828125 103.035156 248.253906 99.976562 C 241.960938 97.050781 234.1875 95.785156 225.753906 97.007812 C 209.699219 99.386719 200.503906 120.554688 199.519531 122.871094 C 199.125 124.136719 197.835938 124.96875 196.484375 124.769531 C 196.460938 124.769531 192.203125 124.09375 188.96875 126.429688 C 195.105469 136.699219 200.71875 147.992188 203.996094 158.324219 C 207.121094 168.21875 209.828125 180.078125 202.445312 188.816406 C 199.148438 192.707031 192.8125 195.566406 186.804688 195.980469 C 184.6875 196.136719 182.566406 195.980469 180.625 195.480469 C 178.550781 194.957031 176.648438 194.058594 175.054688 192.707031 C 172.5625 190.609375 170.882812 187.484375 170.574219 183.183594 C 170.117188 176.5625 171.429688 166.40625 173.394531 156.464844 C 175.882812 143.773438 179.464844 131.238281 181.652344 126.847656 C 181.824219 126.496094 182 126.167969 182.195312 125.839844 C 180.582031 123.242188 178.921875 120.707031 177.28125 118.328125 C 169.351562 106.75 161.992188 98.230469 159.085938 97.160156 C 153.429688 99.585938 151.507812 115.835938 151.441406 116.40625 C 151.308594 117.605469 150.414062 118.609375 149.167969 118.828125 L 125.226562 122.9375 C 123.808594 123.199219 122.410156 122.347656 122.039062 120.949219 C 121.535156 119.089844 118.433594 114.765625 114.675781 112.058594 C 113.277344 111.054688 111.835938 110.308594 110.527344 110.136719 C 109.5 109.980469 108.472656 110.222656 107.578125 111.007812 C 105.960938 112.449219 104.542969 115.488281 103.601562 120.839844 C 102.160156 129.03125 100.480469 141.414062 98.839844 154.585938 C 105.109375 156.3125 108.101562 158.671875 108.125 158.695312 C 109.324219 159.632812 109.542969 161.359375 108.625 162.5625 C 107.6875 163.761719 105.960938 163.980469 104.761719 163.0625 C 104.761719 163.0625 102.683594 161.425781 98.164062 160.070312 C 97.835938 162.78125 97.507812 165.53125 97.179688 168.242188 C 103.691406 169.355469 107.074219 172.414062 107.097656 172.414062 C 108.234375 173.417969 108.34375 175.164062 107.335938 176.300781 C 106.332031 177.4375 104.585938 177.546875 103.449219 176.542969 C 103.449219 176.542969 101.175781 174.488281 96.546875 173.65625 C 93.882812 196.550781 94.625 190.519531 94.601562 190.628906 C 94.449219 192.136719 93.09375 193.25 91.589844 193.097656 C 90.082031 192.945312 88.964844 191.589844 89.121094 190.085938 C 89.140625 189.976562 88.355469 196.179688 91.019531 173.394531 C 88.617188 173.546875 85.886719 174.027344 82.761719 175.035156 C 81.320312 175.492188 79.769531 174.707031 79.3125 173.265625 C 78.851562 171.824219 79.640625 170.273438 81.082031 169.792969 C 85.058594 168.503906 88.574219 167.976562 91.652344 167.890625 C 92.003906 164.898438 92.375 161.90625 92.722656 158.914062 C 89.554688 158.433594 85.710938 158.171875 81.148438 158.410156 C 79.640625 158.476562 78.328125 157.316406 78.261719 155.789062 C 78.175781 154.28125 79.355469 152.972656 80.863281 152.90625 C 85.710938 152.644531 89.882812 152.925781 93.402344 153.472656 C 95.039062 140.367188 96.722656 128.070312 98.140625 119.921875 C 99.320312 113.238281 101.375 109.152344 103.90625 106.925781 C 106.15625 104.9375 108.691406 104.347656 111.246094 104.71875 C 113.542969 105.046875 115.792969 106.136719 117.867188 107.644531 C 121.46875 110.246094 124.660156 114.265625 126.296875 117.210938 L 146.242188 113.804688 C 147.117188 108.429688 150.109375 94.253906 157.773438 91.828125 C 158.429688 91.632812 159.128906 91.613281 159.894531 91.765625 C 163.890625 92.574219 172.890625 102.226562 181.824219 115.289062 C 183.246094 117.367188 184.6875 119.550781 186.105469 121.777344 C 189.296875 119.636719 192.921875 119.246094 195.171875 119.246094 C 197.96875 113.214844 208.058594 94.125 224.988281 91.632812 C 234.511719 90.234375 243.402344 91.699219 250.613281 95.0625 C 258.453125 98.734375 264.351562 104.652344 267.0625 111.621094 C 270.402344 120.25 272.152344 127.851562 272.914062 131.738281 L 273.285156 131.71875 C 274.882812 131.652344 276.652344 131.519531 278.289062 131.410156 C 280.40625 131.257812 282.351562 131.128906 284.296875 131.105469 C 291.964844 130.996094 296.59375 132.589844 296.726562 141.066406 C 296.8125 146.703125 295.261719 156.488281 291.917969 165.335938 C 289.386719 172.042969 285.78125 178.332031 280.996094 182.089844 C 280.125 182.789062 279.183594 183.421875 278.246094 184.035156 C 280.253906 186.328125 282.089844 190.238281 281.761719 196.878906 C 281.542969 201.050781 279.992188 203.824219 277.785156 205.484375 C 276.300781 206.597656 274.574219 207.167969 272.804688 207.296875 C 271.144531 207.40625 269.421875 207.121094 267.824219 206.511719 C 264.722656 205.308594 262.035156 202.820312 261.121094 199.675781 C 260.332031 196.921875 259.132812 194.867188 257.40625 193.121094 C 255.59375 191.308594 253.101562 189.714844 249.804688 187.964844 C 247.050781 187.046875 244.5625 185.695312 242.421875 183.902344 C 238.359375 180.449219 234.230469 175.601562 230.777344 170.816406 C 227.851562 166.777344 225.40625 162.734375 223.875 159.632812 C 223.527344 160.136719 223.371094 160.507812 223.371094 160.507812 Z M 223.371094 160.507812 " fill-opacity="1" fill-rule="evenodd"/></g><path fill="#272727" d="M 112.382812 136.542969 C 114.414062 136.21875 116.597656 139.296875 117.253906 143.425781 C 117.910156 147.554688 116.816406 151.160156 114.785156 151.484375 C 112.753906 151.8125 110.570312 148.734375 109.914062 144.605469 C 109.238281 140.476562 110.351562 136.871094 112.382812 136.542969 Z M 112.382812 136.542969 " fill-opacity="1" fill-rule="evenodd"/><path fill="#272727" d="M 163.824219 128.441406 C 165.859375 128.113281 168.042969 131.191406 168.699219 135.320312 C 169.351562 139.449219 168.261719 143.054688 166.230469 143.382812 C 164.199219 143.710938 162.011719 140.628906 161.359375 136.5 C 160.679688 132.371094 161.792969 128.769531 163.824219 128.441406 Z M 163.824219 128.441406 " fill-opacity="1" fill-rule="evenodd"/><g fill="#00bcd4" fill-opacity="1"><g transform="translate(3.660046, 255.135493)"><g><path d="M 22.5 -45.125 C 25.550781 -45.125 28.269531 -44.445312 30.65625 -43.09375 C 33.039062 -41.738281 34.941406 -39.890625 36.359375 -37.546875 C 37.773438 -35.210938 38.484375 -32.5625 38.484375 -29.59375 C 38.484375 -26.625 37.785156 -23.96875 36.390625 -21.625 C 34.992188 -19.28125 33.09375 -17.441406 30.6875 -16.109375 C 28.28125 -14.785156 25.550781 -14.125 22.5 -14.125 L 14.953125 -14.125 L 14.953125 0 L 5.15625 0 L 5.15625 -45.125 Z M 22.109375 -23.140625 C 24.046875 -23.140625 25.601562 -23.75 26.78125 -24.96875 C 27.96875 -26.195312 28.5625 -27.738281 28.5625 -29.59375 C 28.5625 -31.476562 27.96875 -33.035156 26.78125 -34.265625 C 25.601562 -35.492188 24.046875 -36.109375 22.109375 -36.109375 L 14.953125 -36.109375 L 14.953125 -23.140625 Z M 22.109375 -23.140625 "/></g></g></g><g fill="#00bcd4" fill-opacity="1"><g transform="translate(40.084198, 255.135493)"><g><path d="M 38.296875 -17.53125 C 38.296875 -16.632812 38.226562 -15.710938 38.09375 -14.765625 L 11.796875 -14.765625 C 12.179688 -12.398438 13.125 -10.582031 14.625 -9.3125 C 16.132812 -8.039062 18.03125 -7.40625 20.3125 -7.40625 C 21.9375 -7.40625 23.394531 -7.757812 24.6875 -8.46875 C 25.976562 -9.1875 26.96875 -10.164062 27.65625 -11.40625 L 37.578125 -11.40625 C 36.296875 -7.625 34.109375 -4.613281 31.015625 -2.375 C 27.921875 -0.144531 24.351562 0.96875 20.3125 0.96875 C 16.875 0.96875 13.789062 0.160156 11.0625 -1.453125 C 8.332031 -3.066406 6.179688 -5.257812 4.609375 -8.03125 C 3.035156 -10.800781 2.25 -13.925781 2.25 -17.40625 C 2.25 -20.882812 3.035156 -24.007812 4.609375 -26.78125 C 6.179688 -29.550781 8.332031 -31.742188 11.0625 -33.359375 C 13.789062 -34.972656 16.875 -35.78125 20.3125 -35.78125 C 23.875 -35.78125 27.007812 -34.953125 29.71875 -33.296875 C 32.425781 -31.640625 34.53125 -29.4375 36.03125 -26.6875 C 37.539062 -23.9375 38.296875 -20.882812 38.296875 -17.53125 Z M 20.3125 -27.78125 C 18.207031 -27.78125 16.429688 -27.203125 14.984375 -26.046875 C 13.546875 -24.890625 12.570312 -23.273438 12.0625 -21.203125 L 28.875 -21.203125 C 27.5 -25.585938 24.644531 -27.78125 20.3125 -27.78125 Z M 20.3125 -27.78125 "/></g></g></g><g fill="#00bcd4" fill-opacity="1"><g transform="translate(76.895157, 255.135493)"><g><path d="M 21.53125 -8.375 L 25.78125 -8.375 L 25.78125 0 L 19.140625 0 C 15.316406 0 12.296875 -1.101562 10.078125 -3.3125 C 7.867188 -5.53125 6.765625 -8.570312 6.765625 -12.4375 L 6.765625 -27.265625 L 0.453125 -27.265625 L 0.453125 -29.265625 L 14.25 -43.90625 L 15.984375 -43.90625 L 15.984375 -34.8125 L 25.59375 -34.8125 L 25.59375 -27.265625 L 16.1875 -27.265625 L 16.1875 -13.671875 C 16.1875 -11.992188 16.644531 -10.691406 17.5625 -9.765625 C 18.488281 -8.835938 19.8125 -8.375 21.53125 -8.375 Z M 21.53125 -8.375 "/></g></g></g><g fill="#00bcd4" fill-opacity="1"><g transform="translate(100.941414, 255.135493)"><g><path d="M 16.890625 0.96875 C 13.960938 0.96875 11.40625 0.453125 9.21875 -0.578125 C 7.03125 -1.609375 5.320312 -3.054688 4.09375 -4.921875 C 2.863281 -6.796875 2.25 -8.976562 2.25 -11.46875 L 11.40625 -11.46875 C 11.445312 -9.925781 12.003906 -8.765625 13.078125 -7.984375 C 14.160156 -7.210938 15.539062 -6.828125 17.21875 -6.828125 C 18.550781 -6.828125 19.707031 -7.117188 20.6875 -7.703125 C 21.675781 -8.285156 22.171875 -9.15625 22.171875 -10.3125 C 22.171875 -11.519531 21.515625 -12.367188 20.203125 -12.859375 C 18.898438 -13.359375 17.320312 -13.753906 15.46875 -14.046875 C 14.09375 -14.265625 12.664062 -14.566406 11.1875 -14.953125 C 9.707031 -15.335938 8.34375 -15.894531 7.09375 -16.625 C 5.84375 -17.363281 4.820312 -18.375 4.03125 -19.65625 C 3.238281 -20.945312 2.84375 -22.625 2.84375 -24.6875 C 2.84375 -26.882812 3.429688 -28.820312 4.609375 -30.5 C 5.785156 -32.175781 7.414062 -33.472656 9.5 -34.390625 C 11.59375 -35.316406 14.054688 -35.78125 16.890625 -35.78125 C 19.679688 -35.78125 22.117188 -35.296875 24.203125 -34.328125 C 26.285156 -33.359375 27.90625 -32.003906 29.0625 -30.265625 C 30.226562 -28.523438 30.8125 -26.492188 30.8125 -24.171875 L 21.859375 -24.171875 C 21.859375 -25.546875 21.394531 -26.578125 20.46875 -27.265625 C 19.539062 -27.953125 18.265625 -28.296875 16.640625 -28.296875 C 15.171875 -28.296875 14.023438 -27.984375 13.203125 -27.359375 C 12.390625 -26.742188 11.984375 -25.941406 11.984375 -24.953125 C 11.984375 -23.785156 12.628906 -22.988281 13.921875 -22.5625 C 15.210938 -22.132812 16.757812 -21.769531 18.5625 -21.46875 C 19.976562 -21.207031 21.4375 -20.894531 22.9375 -20.53125 C 24.445312 -20.164062 25.847656 -19.617188 27.140625 -18.890625 C 28.429688 -18.160156 29.472656 -17.148438 30.265625 -15.859375 C 31.054688 -14.566406 31.453125 -12.867188 31.453125 -10.765625 C 31.453125 -8.398438 30.847656 -6.335938 29.640625 -4.578125 C 28.441406 -2.816406 26.75 -1.453125 24.5625 -0.484375 C 22.375 0.484375 19.816406 0.96875 16.890625 0.96875 Z M 16.890625 0.96875 "/></g></g></g><g fill="#272727" fill-opacity="1"><g transform="translate(134.803942, 255.135493)"><g><path d="M 35.203125 -45.125 L 40.8125 -45.125 L 40.8125 0 L 35.203125 0 L 35.203125 -20.5 L 11.796875 -20.5 L 11.796875 0 L 6.1875 0 L 6.1875 -45.125 L 11.796875 -45.125 L 11.796875 -25.921875 L 35.203125 -25.921875 Z M 35.203125 -45.125 "/></g></g></g><g fill="#272727" fill-opacity="1"><g transform="translate(178.126179, 255.135493)"><g><path d="M 38.09375 -17.28125 C 38.09375 -16.9375 38.070312 -16.601562 38.03125 -16.28125 C 37.988281 -15.957031 37.96875 -15.625 37.96875 -15.28125 L 8.25 -15.28125 C 8.675781 -12.050781 10.003906 -9.457031 12.234375 -7.5 C 14.472656 -5.550781 17.226562 -4.578125 20.5 -4.578125 C 22.90625 -4.578125 25.050781 -5.113281 26.9375 -6.1875 C 28.832031 -7.257812 30.316406 -8.742188 31.390625 -10.640625 L 37.140625 -10.640625 C 35.671875 -7.023438 33.472656 -4.21875 30.546875 -2.21875 C 27.628906 -0.21875 24.28125 0.78125 20.5 0.78125 C 17.144531 0.78125 14.125 -0.015625 11.4375 -1.609375 C 8.75 -3.203125 6.628906 -5.375 5.078125 -8.125 C 3.535156 -10.875 2.765625 -13.96875 2.765625 -17.40625 C 2.765625 -20.84375 3.535156 -23.9375 5.078125 -26.6875 C 6.628906 -29.4375 8.75 -31.609375 11.4375 -33.203125 C 14.125 -34.796875 17.144531 -35.59375 20.5 -35.59375 C 24.019531 -35.59375 27.101562 -34.773438 29.75 -33.140625 C 32.394531 -31.503906 34.445312 -29.300781 35.90625 -26.53125 C 37.363281 -23.757812 38.09375 -20.675781 38.09375 -17.28125 Z M 20.5 -30.359375 C 17.363281 -30.359375 14.707031 -29.445312 12.53125 -27.625 C 10.363281 -25.800781 8.976562 -23.382812 8.375 -20.375 L 32.5625 -20.375 C 32 -23.46875 30.617188 -25.90625 28.421875 -27.6875 C 26.234375 -29.46875 23.59375 -30.359375 20.5 -30.359375 Z M 20.5 -30.359375 "/></g></g></g><g fill="#272727" fill-opacity="1"><g transform="translate(215.19501, 255.135493)"><g><path d="M 35.203125 -34.8125 L 39.578125 -34.8125 L 39.578125 0 L 35 0 L 34.421875 -5.28125 C 32.835938 -3.394531 30.875 -1.910156 28.53125 -0.828125 C 26.1875 0.242188 23.597656 0.78125 20.765625 0.78125 C 17.367188 0.78125 14.304688 -0.015625 11.578125 -1.609375 C 8.847656 -3.203125 6.695312 -5.375 5.125 -8.125 C 3.550781 -10.875 2.765625 -13.96875 2.765625 -17.40625 C 2.765625 -20.882812 3.550781 -23.988281 5.125 -26.71875 C 6.695312 -29.445312 8.847656 -31.609375 11.578125 -33.203125 C 14.304688 -34.796875 17.367188 -35.59375 20.765625 -35.59375 C 23.640625 -35.59375 26.25 -35.039062 28.59375 -33.9375 C 30.9375 -32.84375 32.898438 -31.351562 34.484375 -29.46875 Z M 21.203125 -4.515625 C 23.660156 -4.515625 25.851562 -5.070312 27.78125 -6.1875 C 29.71875 -7.300781 31.234375 -8.835938 32.328125 -10.796875 C 33.421875 -12.753906 33.96875 -14.957031 33.96875 -17.40625 C 33.96875 -19.851562 33.421875 -22.054688 32.328125 -24.015625 C 31.234375 -25.972656 29.71875 -27.507812 27.78125 -28.625 C 25.851562 -29.738281 23.660156 -30.296875 21.203125 -30.296875 C 18.753906 -30.296875 16.5625 -29.726562 14.625 -28.59375 C 12.695312 -27.457031 11.171875 -25.921875 10.046875 -23.984375 C 8.929688 -22.046875 8.375 -19.851562 8.375 -17.40625 C 8.375 -14.957031 8.929688 -12.765625 10.046875 -10.828125 C 11.171875 -8.890625 12.695312 -7.351562 14.625 -6.21875 C 16.5625 -5.082031 18.753906 -4.515625 21.203125 -4.515625 Z M 21.203125 -4.515625 "/></g></g></g><g fill="#272727" fill-opacity="1"><g transform="translate(256.583205, 255.135493)"><g><path d="M 30.109375 -34.8125 L 35.71875 -34.8125 L 21.015625 0 L 16.046875 0 L 0.96875 -34.8125 L 6.703125 -34.8125 L 18.5 -7.09375 Z M 30.109375 -34.8125 "/></g></g></g><g fill="#272727" fill-opacity="1"><g transform="translate(289.783947, 255.135493)"><g><path d="M 38.09375 -17.28125 C 38.09375 -16.9375 38.070312 -16.601562 38.03125 -16.28125 C 37.988281 -15.957031 37.96875 -15.625 37.96875 -15.28125 L 8.25 -15.28125 C 8.675781 -12.050781 10.003906 -9.457031 12.234375 -7.5 C 14.472656 -5.550781 17.226562 -4.578125 20.5 -4.578125 C 22.90625 -4.578125 25.050781 -5.113281 26.9375 -6.1875 C 28.832031 -7.257812 30.316406 -8.742188 31.390625 -10.640625 L 37.140625 -10.640625 C 35.671875 -7.023438 33.472656 -4.21875 30.546875 -2.21875 C 27.628906 -0.21875 24.28125 0.78125 20.5 0.78125 C 17.144531 0.78125 14.125 -0.015625 11.4375 -1.609375 C 8.75 -3.203125 6.628906 -5.375 5.078125 -8.125 C 3.535156 -10.875 2.765625 -13.96875 2.765625 -17.40625 C 2.765625 -20.84375 3.535156 -23.9375 5.078125 -26.6875 C 6.628906 -29.4375 8.75 -31.609375 11.4375 -33.203125 C 14.125 -34.796875 17.144531 -35.59375 20.5 -35.59375 C 24.019531 -35.59375 27.101562 -34.773438 29.75 -33.140625 C 32.394531 -31.503906 34.445312 -29.300781 35.90625 -26.53125 C 37.363281 -23.757812 38.09375 -20.675781 38.09375 -17.28125 Z M 20.5 -30.359375 C 17.363281 -30.359375 14.707031 -29.445312 12.53125 -27.625 C 10.363281 -25.800781 8.976562 -23.382812 8.375 -20.375 L 32.5625 -20.375 C 32 -23.46875 30.617188 -25.90625 28.421875 -27.6875 C 26.234375 -29.46875 23.59375 -30.359375 20.5 -30.359375 Z M 20.5 -30.359375 "/></g></g></g><g fill="#272727" fill-opacity="1"><g transform="translate(326.852782, 255.135493)"><g><path d="M 22.953125 -35.59375 C 25.703125 -35.59375 28.085938 -34.957031 30.109375 -33.6875 C 32.128906 -32.414062 33.675781 -30.660156 34.75 -28.421875 C 35.820312 -26.191406 36.359375 -23.660156 36.359375 -20.828125 L 36.359375 0 L 30.875 0 L 30.875 -19.53125 C 30.875 -23.101562 30.066406 -25.832031 28.453125 -27.71875 C 26.847656 -29.613281 24.539062 -30.5625 21.53125 -30.5625 C 19.550781 -30.5625 17.765625 -30.054688 16.171875 -29.046875 C 14.585938 -28.035156 13.332031 -26.644531 12.40625 -24.875 C 11.488281 -23.113281 11.03125 -21.160156 11.03125 -19.015625 L 11.03125 0 L 5.546875 0 L 5.546875 -34.8125 L 9.40625 -34.8125 L 10.515625 -29.328125 C 11.796875 -31.265625 13.507812 -32.789062 15.65625 -33.90625 C 17.8125 -35.03125 20.242188 -35.59375 22.953125 -35.59375 Z M 22.953125 -35.59375 "/></g></g></g></svg>