<svg xmlns="http://www.w3.org/2000/svg" xmlns:xlink="http://www.w3.org/1999/xlink" width="500" zoomAndPan="magnify" viewBox="0 0 375 374.999991" height="500" preserveAspectRatio="xMidYMid meet" version="1.0"><defs><clipPath id="aee0a30573"><path d="M 0 104 L 375 104 L 375 304.234375 L 0 304.234375 Z M 0 104 " clip-rule="nonzero"/></clipPath></defs><path fill="#00bcd4" d="M 199.957031 58.652344 C 200.40625 59.324219 200.78125 60.039062 201.15625 60.75 C 201.71875 60.449219 202.28125 60.148438 202.878906 59.925781 C 203.03125 59.851562 203.21875 59.777344 203.367188 59.699219 C 206.738281 58.425781 210.1875 58.351562 214.269531 59.625 C 218.804688 61.085938 222.363281 64.234375 224.386719 68.128906 C 226.410156 72.027344 226.933594 76.746094 225.507812 81.28125 C 223.261719 88.289062 217.867188 93.980469 210.824219 98.964844 C 204.339844 103.609375 196.511719 107.621094 188.71875 111.667969 C 186.246094 112.941406 183.171875 111.964844 181.898438 109.492188 C 177.851562 101.699219 173.84375 93.90625 171.222656 86.339844 C 168.375 78.210938 167.25 70.417969 169.460938 63.410156 C 170.921875 58.875 174.066406 55.316406 177.964844 53.292969 C 181.859375 51.269531 186.582031 50.746094 191.117188 52.171875 C 195.160156 53.554688 197.972656 55.617188 199.957031 58.652344 Z M 193.324219 70.003906 C 192.914062 67.457031 192.390625 65.546875 191.527344 64.234375 L 191.527344 64.195312 C 190.851562 63.148438 189.730469 62.398438 188.042969 61.875 C 186.171875 61.273438 184.222656 61.5 182.609375 62.359375 C 181 63.183594 179.6875 64.644531 179.089844 66.519531 C 177.628906 71.128906 178.601562 76.824219 180.773438 83.042969 C 182.6875 88.476562 185.53125 94.394531 188.566406 100.351562 C 194.488281 97.242188 200.21875 94.09375 204.941406 90.722656 C 210.296875 86.902344 214.382812 82.816406 215.84375 78.210938 C 216.441406 76.335938 216.21875 74.386719 215.355469 72.777344 C 214.53125 71.164062 213.070312 69.855469 211.199219 69.253906 C 209.472656 68.691406 208.125 68.691406 206.964844 69.140625 L 206.703125 69.253906 C 205.316406 69.855469 203.777344 71.164062 202.019531 72.964844 C 200.070312 74.988281 196.847656 75.023438 194.863281 73.078125 C 193.964844 72.253906 193.476562 71.128906 193.324219 70.003906 Z M 193.324219 70.003906 " fill-opacity="1" fill-rule="evenodd"/><g clip-path="url(#aee0a30573)"><path fill="#272727" d="M 334.3125 268.648438 C 333.113281 269.136719 331.875 269.625 330.601562 270.035156 C 333.414062 273.78125 336.109375 278.992188 336.785156 285.734375 C 337.046875 288.320312 335.136719 290.644531 332.550781 290.867188 C 329.964844 291.128906 327.644531 289.21875 327.417969 286.597656 C 326.707031 279.476562 322.847656 274.871094 320.300781 272.585938 C 318.3125 272.921875 316.289062 273.144531 314.304688 273.257812 C 318.3125 277.34375 321.046875 282.0625 322.847656 288.28125 C 323.558594 290.71875 325.882812 292.742188 328.691406 293.828125 C 330.152344 294.390625 331.726562 294.652344 333.1875 294.578125 C 334.460938 294.5 335.699219 294.089844 336.671875 293.339844 C 338.320312 292.066406 339.558594 289.632812 339.746094 285.660156 C 340.304688 273.859375 336.371094 269.886719 334.3125 268.648438 Z M 341.28125 228.523438 C 340.117188 237.105469 337.535156 249.128906 331.839844 259.394531 C 335.472656 257.785156 338.921875 255.761719 341.992188 253.328125 C 348.699219 248.042969 353.90625 238.789062 357.726562 228.710938 L 357.839844 228.449219 C 352.894531 228.710938 347.386719 228.75 341.28125 228.523438 Z M 293.734375 142.277344 C 288.902344 142.277344 284.96875 148.535156 284.96875 156.214844 C 284.96875 163.894531 288.902344 170.152344 293.734375 170.152344 C 298.570312 170.152344 302.503906 163.894531 302.503906 156.214844 C 302.503906 148.496094 298.570312 142.277344 293.734375 142.277344 Z M 314.15625 233.957031 C 311.570312 233.957031 309.472656 236.054688 309.472656 238.640625 C 309.472656 241.226562 311.570312 243.324219 314.15625 243.324219 C 316.738281 243.324219 318.839844 241.226562 318.839844 238.640625 C 318.839844 236.054688 316.738281 233.957031 314.15625 233.957031 Z M 301.152344 221.554688 C 298.570312 221.554688 296.46875 223.652344 296.46875 226.238281 C 296.46875 228.824219 298.570312 230.921875 301.152344 230.921875 C 303.738281 230.921875 305.835938 228.824219 305.835938 226.238281 C 305.835938 223.652344 303.738281 221.554688 301.152344 221.554688 Z M 296.84375 238.453125 C 294.261719 238.453125 292.160156 240.550781 292.160156 243.136719 C 292.160156 245.722656 294.261719 247.820312 296.84375 247.820312 C 299.429688 247.820312 301.527344 245.722656 301.527344 243.136719 C 301.527344 240.550781 299.429688 238.453125 296.84375 238.453125 Z M 252.824219 143.25 C 247.988281 143.25 244.054688 149.507812 244.054688 157.1875 C 244.054688 164.867188 247.988281 171.125 252.824219 171.125 C 257.65625 171.125 261.589844 164.90625 261.589844 157.1875 C 261.589844 149.46875 257.65625 143.25 252.824219 143.25 Z M 117.195312 182.476562 C 117.195312 182.515625 123 196.191406 118.054688 198.550781 C 113 200.984375 108.539062 193.042969 108.503906 193.042969 C 107.226562 190.757812 104.34375 189.972656 102.058594 191.28125 C 100.523438 192.144531 99.660156 193.71875 99.660156 195.367188 C 99.621094 196.339844 99.097656 202.558594 93.515625 203.234375 C 88.71875 203.796875 89.019531 188.882812 89.019531 188.847656 C 89.058594 186.261719 86.996094 184.089844 84.375 184.050781 C 81.75 184.015625 79.617188 186.074219 79.578125 188.695312 C 79.578125 188.773438 79.054688 214.511719 94.601562 212.636719 C 100.898438 211.890625 104.457031 208.480469 106.480469 204.921875 C 110.300781 207.953125 115.660156 210.164062 122.066406 207.09375 C 135.253906 200.796875 125.886719 178.992188 125.847656 178.917969 C 124.875 176.519531 122.101562 175.359375 119.703125 176.332031 C 117.34375 177.308594 116.21875 180.042969 117.195312 182.476562 Z M 184.257812 174.199219 C 180.8125 183.191406 176.089844 200.761719 172.570312 218.78125 C 169.347656 235.15625 167.175781 251.714844 167.886719 262.167969 C 168.1875 266.738281 169.835938 269.886719 172.234375 271.910156 C 173.804688 273.257812 175.792969 274.15625 177.964844 274.71875 C 180.363281 275.320312 182.984375 275.46875 185.644531 275.320312 C 193.625 274.757812 201.792969 271.199219 205.914062 266.363281 C 215.507812 255.011719 210.746094 235.640625 206.777344 223.015625 C 201.832031 207.28125 193.511719 190.160156 184.257812 174.199219 Z M 249.039062 223.878906 C 248.027344 226.277344 245.253906 227.398438 242.855469 226.386719 C 240.457031 225.375 239.335938 222.605469 240.347656 220.207031 C 240.347656 220.167969 245.441406 208.253906 259.378906 202.820312 C 261.8125 201.886719 264.550781 203.085938 265.484375 205.519531 C 266.421875 207.953125 265.222656 210.691406 262.789062 211.625 C 260.503906 212.527344 258.554688 213.613281 256.90625 214.773438 C 258.59375 219.382812 263.3125 227.511719 269.382812 235.90625 C 274.890625 243.511719 281.410156 251.226562 287.777344 256.625 C 290.550781 258.984375 293.886719 260.746094 297.558594 261.945312 L 297.746094 262.019531 C 302.503906 263.554688 307.824219 264.117188 313.253906 263.855469 C 314.566406 263.78125 315.839844 263.667969 317.152344 263.480469 C 317.265625 263.367188 317.375 263.292969 317.488281 263.179688 C 326.816406 253.738281 330.488281 238.152344 331.914062 227.773438 C 307.972656 223.691406 307.972656 200.085938 310.109375 186.222656 C 295.382812 188.136719 282.421875 190.382812 282.382812 190.421875 C 279.835938 190.871094 277.363281 189.183594 276.914062 186.597656 C 276.464844 184.050781 278.148438 181.578125 280.734375 181.128906 C 280.808594 181.128906 304.414062 176.96875 324.496094 175.132812 C 323.183594 168.578125 320.335938 156.777344 315.128906 143.324219 C 311.382812 133.660156 302.988281 125.304688 291.710938 120.058594 C 280.921875 115.039062 267.585938 112.867188 253.121094 114.964844 C 225.585938 119.046875 209.8125 155.351562 208.125 159.324219 C 207.449219 161.496094 205.242188 162.921875 202.917969 162.582031 C 202.878906 162.582031 195.574219 161.421875 190.027344 165.429688 C 200.558594 183.039062 210.1875 202.410156 215.804688 220.132812 C 221.164062 237.105469 225.808594 257.449219 213.144531 272.433594 C 207.488281 279.101562 196.621094 284.011719 186.320312 284.722656 C 182.6875 284.984375 179.050781 284.722656 175.71875 283.863281 C 172.15625 282.960938 168.898438 281.425781 166.164062 279.101562 C 161.890625 275.507812 159.007812 270.148438 158.480469 262.769531 C 157.695312 251.414062 159.945312 233.992188 163.316406 216.945312 C 167.585938 195.179688 173.730469 173.671875 177.476562 166.140625 C 177.777344 165.542969 178.078125 164.980469 178.414062 164.417969 C 175.640625 159.960938 172.792969 155.613281 169.984375 151.53125 C 156.382812 131.671875 143.757812 117.0625 138.773438 115.226562 C 129.070312 119.382812 125.773438 147.257812 125.660156 148.234375 C 125.4375 150.292969 123.902344 152.019531 121.765625 152.390625 L 80.703125 159.4375 C 78.265625 159.886719 75.871094 158.425781 75.230469 156.027344 C 74.371094 152.84375 69.050781 145.421875 62.605469 140.777344 C 60.207031 139.054688 57.734375 137.78125 55.488281 137.480469 C 53.726562 137.21875 51.964844 137.628906 50.429688 138.980469 C 47.65625 141.453125 45.222656 146.660156 43.609375 155.839844 C 41.136719 169.890625 38.253906 191.132812 35.441406 213.726562 C 46.195312 216.683594 51.328125 220.730469 51.367188 220.769531 C 53.425781 222.378906 53.800781 225.339844 52.226562 227.398438 C 50.617188 229.460938 47.65625 229.835938 45.597656 228.261719 C 45.597656 228.261719 42.039062 225.453125 34.28125 223.128906 C 33.71875 227.773438 33.15625 232.496094 32.59375 237.140625 C 43.761719 239.050781 49.566406 244.296875 49.605469 244.296875 C 51.554688 246.019531 51.742188 249.019531 50.015625 250.964844 C 48.292969 252.914062 45.296875 253.101562 43.347656 251.378906 C 43.347656 251.378906 39.453125 247.855469 31.507812 246.433594 C 26.9375 285.699219 28.210938 275.355469 28.175781 275.542969 C 27.914062 278.128906 25.589844 280.039062 23.003906 279.777344 C 20.417969 279.515625 18.507812 277.191406 18.769531 274.605469 C 18.808594 274.421875 17.460938 285.058594 22.03125 245.984375 C 17.910156 246.246094 13.226562 247.070312 7.867188 248.792969 C 5.394531 249.578125 2.734375 248.230469 1.949219 245.757812 C 1.160156 243.285156 2.511719 240.625 4.984375 239.800781 C 11.800781 237.589844 17.832031 236.691406 23.117188 236.542969 C 23.714844 231.410156 24.351562 226.277344 24.953125 221.144531 C 19.519531 220.320312 12.925781 219.867188 5.09375 220.28125 C 2.511719 220.394531 0.261719 218.40625 0.148438 215.785156 C 0 213.199219 2.023438 210.953125 4.609375 210.839844 C 12.925781 210.390625 20.082031 210.878906 26.113281 211.8125 C 28.925781 189.335938 31.808594 168.242188 34.246094 154.265625 C 36.265625 142.800781 39.789062 135.792969 44.136719 131.972656 C 47.996094 128.5625 52.339844 127.550781 56.722656 128.1875 C 60.65625 128.75 64.515625 130.625 68.078125 133.210938 C 74.257812 137.667969 79.726562 144.5625 82.539062 149.621094 L 116.746094 143.773438 C 118.242188 134.558594 123.375 110.242188 136.527344 106.082031 C 137.652344 105.746094 138.851562 105.710938 140.160156 105.972656 C 147.019531 107.359375 162.453125 123.917969 177.777344 146.324219 C 180.210938 149.882812 182.6875 153.628906 185.121094 157.449219 C 190.589844 153.777344 196.808594 153.105469 200.667969 153.105469 C 205.464844 142.761719 222.773438 110.019531 251.8125 105.746094 C 268.144531 103.347656 283.394531 105.859375 295.757812 111.628906 C 309.210938 117.921875 319.324219 128.078125 323.972656 140.027344 C 329.703125 154.828125 332.699219 167.867188 334.011719 174.535156 L 334.648438 174.496094 C 337.382812 174.386719 340.417969 174.160156 343.230469 173.972656 C 346.863281 173.710938 350.199219 173.484375 353.53125 173.449219 C 366.683594 173.261719 374.625 175.996094 374.851562 190.53125 C 375 200.199219 372.339844 216.984375 366.609375 232.15625 C 362.261719 243.660156 356.078125 254.449219 347.875 260.894531 C 346.375 262.09375 344.765625 263.179688 343.152344 264.230469 C 346.601562 268.164062 349.746094 274.871094 349.1875 286.257812 C 348.8125 293.414062 346.152344 298.171875 342.367188 301.019531 C 339.820312 302.933594 336.859375 303.90625 333.824219 304.128906 C 330.976562 304.316406 328.015625 303.832031 325.28125 302.78125 C 319.960938 300.722656 315.355469 296.449219 313.78125 291.054688 C 312.429688 286.335938 310.371094 282.8125 307.410156 279.816406 C 304.300781 276.707031 300.03125 273.96875 294.371094 270.972656 C 289.652344 269.398438 285.378906 267.078125 281.707031 264.003906 C 274.742188 258.085938 267.660156 249.765625 261.738281 241.5625 C 256.71875 234.628906 252.523438 227.699219 249.898438 222.378906 C 249.300781 223.242188 249.039062 223.878906 249.039062 223.878906 Z M 249.039062 223.878906 " fill-opacity="1" fill-rule="evenodd"/></g><path fill="#272727" d="M 58.671875 182.777344 C 62.15625 182.214844 65.902344 187.5 67.027344 194.578125 C 68.152344 201.660156 66.277344 207.84375 62.792969 208.40625 C 59.308594 208.964844 55.5625 203.683594 54.4375 196.601562 C 53.277344 189.519531 55.1875 183.339844 58.671875 182.777344 Z M 58.671875 182.777344 " fill-opacity="1" fill-rule="evenodd"/><path fill="#272727" d="M 146.90625 168.878906 C 150.390625 168.316406 154.136719 173.597656 155.261719 180.679688 C 156.382812 187.761719 154.511719 193.941406 151.027344 194.503906 C 147.542969 195.066406 143.796875 189.785156 142.671875 182.703125 C 141.511719 175.621094 143.421875 169.441406 146.90625 168.878906 Z M 146.90625 168.878906 " fill-opacity="1" fill-rule="evenodd"/></svg>