<svg xmlns="http://www.w3.org/2000/svg" xmlns:xlink="http://www.w3.org/1999/xlink" width="500" zoomAndPan="magnify" viewBox="0 0 375 374.999991" height="500" preserveAspectRatio="xMidYMid meet" version="1.0"><defs><g/></defs><g fill="#00bcd4" fill-opacity="1"><g transform="translate(3.434233, 184.812921)"><g><path d="M 22.859375 -45.859375 C 25.960938 -45.859375 28.722656 -45.171875 31.140625 -43.796875 C 33.566406 -42.421875 35.5 -40.539062 36.9375 -38.15625 C 38.382812 -35.78125 39.109375 -33.085938 39.109375 -30.078125 C 39.109375 -27.054688 38.398438 -24.351562 36.984375 -21.96875 C 35.566406 -19.59375 33.632812 -17.726562 31.1875 -16.375 C 28.738281 -15.019531 25.960938 -14.34375 22.859375 -14.34375 L 15.203125 -14.34375 L 15.203125 0 L 5.234375 0 L 5.234375 -45.859375 Z M 22.46875 -23.515625 C 24.4375 -23.515625 26.019531 -24.132812 27.21875 -25.375 C 28.414062 -26.625 29.015625 -28.191406 29.015625 -30.078125 C 29.015625 -31.992188 28.414062 -33.570312 27.21875 -34.8125 C 26.019531 -36.0625 24.4375 -36.6875 22.46875 -36.6875 L 15.203125 -36.6875 L 15.203125 -23.515625 Z M 22.46875 -23.515625 "/></g></g></g><g fill="#00bcd4" fill-opacity="1"><g transform="translate(40.450824, 184.812921)"><g><path d="M 38.921875 -17.8125 C 38.921875 -16.894531 38.851562 -15.957031 38.71875 -15 L 11.984375 -15 C 12.378906 -12.601562 13.34375 -10.757812 14.875 -9.46875 C 16.40625 -8.175781 18.328125 -7.53125 20.640625 -7.53125 C 22.296875 -7.53125 23.78125 -7.890625 25.09375 -8.609375 C 26.40625 -9.335938 27.410156 -10.332031 28.109375 -11.59375 L 38.203125 -11.59375 C 36.890625 -7.75 34.660156 -4.691406 31.515625 -2.421875 C 28.367188 -0.148438 24.742188 0.984375 20.640625 0.984375 C 17.140625 0.984375 14.003906 0.164062 11.234375 -1.46875 C 8.460938 -3.113281 6.28125 -5.34375 4.6875 -8.15625 C 3.09375 -10.96875 2.296875 -14.144531 2.296875 -17.6875 C 2.296875 -21.226562 3.09375 -24.40625 4.6875 -27.21875 C 6.28125 -30.039062 8.460938 -32.269531 11.234375 -33.90625 C 14.003906 -35.539062 17.140625 -36.359375 20.640625 -36.359375 C 24.265625 -36.359375 27.453125 -35.515625 30.203125 -33.828125 C 32.953125 -32.148438 35.09375 -29.914062 36.625 -27.125 C 38.15625 -24.332031 38.921875 -21.226562 38.921875 -17.8125 Z M 20.640625 -28.234375 C 18.492188 -28.234375 16.6875 -27.644531 15.21875 -26.46875 C 13.757812 -25.289062 12.769531 -23.648438 12.25 -21.546875 L 29.34375 -21.546875 C 27.945312 -26.003906 25.046875 -28.234375 20.640625 -28.234375 Z M 20.640625 -28.234375 "/></g></g></g><g fill="#00bcd4" fill-opacity="1"><g transform="translate(77.860513, 184.812921)"><g><path d="M 21.875 -8.515625 L 26.203125 -8.515625 L 26.203125 0 L 19.453125 0 C 15.566406 0 12.5 -1.125 10.25 -3.375 C 8 -5.625 6.875 -8.710938 6.875 -12.640625 L 6.875 -27.71875 L 0.453125 -27.71875 L 0.453125 -29.75 L 14.484375 -44.609375 L 16.25 -44.609375 L 16.25 -35.375 L 26.015625 -35.375 L 26.015625 -27.71875 L 16.4375 -27.71875 L 16.4375 -13.890625 C 16.4375 -12.179688 16.90625 -10.859375 17.84375 -9.921875 C 18.789062 -8.984375 20.132812 -8.515625 21.875 -8.515625 Z M 21.875 -8.515625 "/></g></g></g><g fill="#00bcd4" fill-opacity="1"><g transform="translate(102.297882, 184.812921)"><g><path d="M 17.171875 0.984375 C 14.191406 0.984375 11.585938 0.460938 9.359375 -0.578125 C 7.140625 -1.628906 5.40625 -3.101562 4.15625 -5 C 2.914062 -6.90625 2.296875 -9.125 2.296875 -11.65625 L 11.59375 -11.65625 C 11.632812 -10.082031 12.203125 -8.898438 13.296875 -8.109375 C 14.390625 -7.328125 15.789062 -6.9375 17.5 -6.9375 C 18.851562 -6.9375 20.03125 -7.234375 21.03125 -7.828125 C 22.03125 -8.421875 22.53125 -9.304688 22.53125 -10.484375 C 22.53125 -11.703125 21.863281 -12.5625 20.53125 -13.0625 C 19.207031 -13.570312 17.601562 -13.976562 15.71875 -14.28125 C 14.320312 -14.5 12.867188 -14.804688 11.359375 -15.203125 C 9.859375 -15.597656 8.472656 -16.164062 7.203125 -16.90625 C 5.941406 -17.644531 4.90625 -18.671875 4.09375 -19.984375 C 3.28125 -21.296875 2.875 -23 2.875 -25.09375 C 2.875 -27.320312 3.472656 -29.285156 4.671875 -30.984375 C 5.878906 -32.691406 7.539062 -34.015625 9.65625 -34.953125 C 11.78125 -35.890625 14.285156 -36.359375 17.171875 -36.359375 C 20.003906 -36.359375 22.476562 -35.863281 24.59375 -34.875 C 26.71875 -33.894531 28.367188 -32.519531 29.546875 -30.75 C 30.722656 -28.988281 31.3125 -26.925781 31.3125 -24.5625 L 22.203125 -24.5625 C 22.203125 -25.96875 21.734375 -27.019531 20.796875 -27.71875 C 19.859375 -28.414062 18.5625 -28.765625 16.90625 -28.765625 C 15.414062 -28.765625 14.253906 -28.445312 13.421875 -27.8125 C 12.597656 -27.175781 12.1875 -26.359375 12.1875 -25.359375 C 12.1875 -24.171875 12.835938 -23.359375 14.140625 -22.921875 C 15.453125 -22.492188 17.03125 -22.125 18.875 -21.8125 C 20.3125 -21.550781 21.789062 -21.234375 23.3125 -20.859375 C 24.84375 -20.492188 26.265625 -19.9375 27.578125 -19.1875 C 28.890625 -18.445312 29.945312 -17.421875 30.75 -16.109375 C 31.5625 -14.804688 31.96875 -13.082031 31.96875 -10.9375 C 31.96875 -8.539062 31.351562 -6.445312 30.125 -4.65625 C 28.90625 -2.863281 27.179688 -1.472656 24.953125 -0.484375 C 22.734375 0.492188 20.140625 0.984375 17.171875 0.984375 Z M 17.171875 0.984375 "/></g></g></g><g fill="#272727" fill-opacity="1"><g transform="translate(136.711181, 184.812921)"><g><path d="M 35.765625 -45.859375 L 41.46875 -45.859375 L 41.46875 0 L 35.765625 0 L 35.765625 -20.828125 L 11.984375 -20.828125 L 11.984375 0 L 6.296875 0 L 6.296875 -45.859375 L 11.984375 -45.859375 L 11.984375 -26.34375 L 35.765625 -26.34375 Z M 35.765625 -45.859375 "/></g></g></g><g fill="#272727" fill-opacity="1"><g transform="translate(180.738054, 184.812921)"><g><path d="M 38.71875 -17.5625 C 38.71875 -17.207031 38.695312 -16.863281 38.65625 -16.53125 C 38.613281 -16.207031 38.59375 -15.875 38.59375 -15.53125 L 8.390625 -15.53125 C 8.828125 -12.25 10.179688 -9.613281 12.453125 -7.625 C 14.722656 -5.644531 17.515625 -4.65625 20.828125 -4.65625 C 23.273438 -4.65625 25.457031 -5.195312 27.375 -6.28125 C 29.300781 -7.375 30.8125 -8.882812 31.90625 -10.8125 L 37.734375 -10.8125 C 36.253906 -7.144531 34.023438 -4.296875 31.046875 -2.265625 C 28.078125 -0.234375 24.671875 0.78125 20.828125 0.78125 C 17.421875 0.78125 14.351562 -0.0234375 11.625 -1.640625 C 8.894531 -3.253906 6.742188 -5.457031 5.171875 -8.25 C 3.597656 -11.050781 2.8125 -14.195312 2.8125 -17.6875 C 2.8125 -21.1875 3.597656 -24.332031 5.171875 -27.125 C 6.742188 -29.914062 8.894531 -32.117188 11.625 -33.734375 C 14.351562 -35.359375 17.421875 -36.171875 20.828125 -36.171875 C 24.410156 -36.171875 27.546875 -35.335938 30.234375 -33.671875 C 32.921875 -32.015625 35.003906 -29.773438 36.484375 -26.953125 C 37.972656 -24.140625 38.71875 -21.007812 38.71875 -17.5625 Z M 20.828125 -30.859375 C 17.640625 -30.859375 14.941406 -29.925781 12.734375 -28.0625 C 10.535156 -26.207031 9.128906 -23.753906 8.515625 -20.703125 L 33.078125 -20.703125 C 32.515625 -23.847656 31.117188 -26.328125 28.890625 -28.140625 C 26.660156 -29.953125 23.972656 -30.859375 20.828125 -30.859375 Z M 20.828125 -30.859375 "/></g></g></g><g fill="#272727" fill-opacity="1"><g transform="translate(218.40981, 184.812921)"><g><path d="M 35.765625 -35.375 L 40.21875 -35.375 L 40.21875 0 L 35.578125 0 L 34.984375 -5.375 C 33.367188 -3.445312 31.367188 -1.9375 28.984375 -0.84375 C 26.609375 0.238281 23.976562 0.78125 21.09375 0.78125 C 17.644531 0.78125 14.53125 -0.0234375 11.75 -1.640625 C 8.976562 -3.253906 6.796875 -5.457031 5.203125 -8.25 C 3.609375 -11.050781 2.8125 -14.195312 2.8125 -17.6875 C 2.8125 -21.226562 3.609375 -24.382812 5.203125 -27.15625 C 6.796875 -29.925781 8.976562 -32.117188 11.75 -33.734375 C 14.53125 -35.359375 17.644531 -36.171875 21.09375 -36.171875 C 24.019531 -36.171875 26.671875 -35.613281 29.046875 -34.5 C 31.429688 -33.382812 33.429688 -31.863281 35.046875 -29.9375 Z M 21.546875 -4.59375 C 24.035156 -4.59375 26.265625 -5.160156 28.234375 -6.296875 C 30.203125 -7.429688 31.742188 -8.988281 32.859375 -10.96875 C 33.972656 -12.957031 34.53125 -15.195312 34.53125 -17.6875 C 34.53125 -20.175781 33.972656 -22.414062 32.859375 -24.40625 C 31.742188 -26.394531 30.203125 -27.957031 28.234375 -29.09375 C 26.265625 -30.226562 24.035156 -30.796875 21.546875 -30.796875 C 19.054688 -30.796875 16.828125 -30.210938 14.859375 -29.046875 C 12.898438 -27.890625 11.351562 -26.328125 10.21875 -24.359375 C 9.082031 -22.398438 8.515625 -20.175781 8.515625 -17.6875 C 8.515625 -15.195312 9.082031 -12.96875 10.21875 -11 C 11.351562 -9.039062 12.898438 -7.484375 14.859375 -6.328125 C 16.828125 -5.171875 19.054688 -4.59375 21.546875 -4.59375 Z M 21.546875 -4.59375 "/></g></g></g><g fill="#272727" fill-opacity="1"><g transform="translate(260.471183, 184.812921)"><g><path d="M 30.59375 -35.375 L 36.296875 -35.375 L 21.359375 0 L 16.3125 0 L 0.984375 -35.375 L 6.8125 -35.375 L 18.796875 -7.203125 Z M 30.59375 -35.375 "/></g></g></g><g fill="#272727" fill-opacity="1"><g transform="translate(294.211936, 184.812921)"><g><path d="M 38.71875 -17.5625 C 38.71875 -17.207031 38.695312 -16.863281 38.65625 -16.53125 C 38.613281 -16.207031 38.59375 -15.875 38.59375 -15.53125 L 8.390625 -15.53125 C 8.828125 -12.25 10.179688 -9.613281 12.453125 -7.625 C 14.722656 -5.644531 17.515625 -4.65625 20.828125 -4.65625 C 23.273438 -4.65625 25.457031 -5.195312 27.375 -6.28125 C 29.300781 -7.375 30.8125 -8.882812 31.90625 -10.8125 L 37.734375 -10.8125 C 36.253906 -7.144531 34.023438 -4.296875 31.046875 -2.265625 C 28.078125 -0.234375 24.671875 0.78125 20.828125 0.78125 C 17.421875 0.78125 14.351562 -0.0234375 11.625 -1.640625 C 8.894531 -3.253906 6.742188 -5.457031 5.171875 -8.25 C 3.597656 -11.050781 2.8125 -14.195312 2.8125 -17.6875 C 2.8125 -21.1875 3.597656 -24.332031 5.171875 -27.125 C 6.742188 -29.914062 8.894531 -32.117188 11.625 -33.734375 C 14.351562 -35.359375 17.421875 -36.171875 20.828125 -36.171875 C 24.410156 -36.171875 27.546875 -35.335938 30.234375 -33.671875 C 32.921875 -32.015625 35.003906 -29.773438 36.484375 -26.953125 C 37.972656 -24.140625 38.71875 -21.007812 38.71875 -17.5625 Z M 20.828125 -30.859375 C 17.640625 -30.859375 14.941406 -29.925781 12.734375 -28.0625 C 10.535156 -26.207031 9.128906 -23.753906 8.515625 -20.703125 L 33.078125 -20.703125 C 32.515625 -23.847656 31.117188 -26.328125 28.890625 -28.140625 C 26.660156 -29.953125 23.972656 -30.859375 20.828125 -30.859375 Z M 20.828125 -30.859375 "/></g></g></g><g fill="#272727" fill-opacity="1"><g transform="translate(331.883695, 184.812921)"><g><path d="M 23.328125 -36.171875 C 26.117188 -36.171875 28.539062 -35.523438 30.59375 -34.234375 C 32.644531 -32.941406 34.21875 -31.160156 35.3125 -28.890625 C 36.40625 -26.617188 36.953125 -24.039062 36.953125 -21.15625 L 36.953125 0 L 31.375 0 L 31.375 -19.84375 C 31.375 -23.46875 30.554688 -26.238281 28.921875 -28.15625 C 27.285156 -30.082031 24.9375 -31.046875 21.875 -31.046875 C 19.875 -31.046875 18.0625 -30.53125 16.4375 -29.5 C 14.820312 -28.476562 13.546875 -27.070312 12.609375 -25.28125 C 11.671875 -23.5 11.203125 -21.515625 11.203125 -19.328125 L 11.203125 0 L 5.640625 0 L 5.640625 -35.375 L 9.5625 -35.375 L 10.671875 -29.8125 C 11.984375 -31.769531 13.734375 -33.316406 15.921875 -34.453125 C 18.109375 -35.597656 20.578125 -36.171875 23.328125 -36.171875 Z M 23.328125 -36.171875 "/></g></g></g></svg>